<svg xmlns="http://www.w3.org/2000/svg" width="32" height="32" viewBox="0 0 32 32">
    <rect width="32" height="32" rx="7" fill="#F5F2EE"/>
    <path d="M18.00 16.00 L18.05 16.14 L18.08 16.29 L18.11 16.44 L18.12 16.60 L18.12 16.76 L18.11 16.92 L18.09 17.09 L18.05 17.25 L18.01 17.42 L17.94 17.59 L17.87 17.75 L17.78 17.91 L17.67 18.07 L17.56 18.22 L17.43 18.37 L17.28 18.50 L17.13 18.63 L16.96 18.75 L16.79 18.86 L16.60 18.96 L16.40 19.04 L16.20 19.11 L15.98 19.17 L15.76 19.21 L15.53 19.24 L15.30 19.25 L15.07 19.24 L14.83 19.22 L14.59 19.18 L14.35 19.12 L14.12 19.04 L13.88 18.95 L13.65 18.84 L13.43 18.71 L13.21 18.56 L13.01 18.39 L12.81 18.21 L12.62 18.01 L12.44 17.80 L12.28 17.57 L12.13 17.33 L12.00 17.07 L11.89 16.81 L11.79 16.53 L11.72 16.24 L11.66 15.95 L11.62 15.65 L11.61 15.34 L11.61 15.03 L11.64 14.72 L11.69 14.41 L11.76 14.09 L11.86 13.78 L11.98 13.48 L12.12 13.18 L12.28 12.89 L12.47 12.60 L12.67 12.33 L12.90 12.07 L13.15 11.83 L13.41 11.60 L13.70 11.39 L14.00 11.19 L14.32 11.02 L14.65 10.87 L15.00 10.73 L15.35 10.63 L15.72 10.55 L16.09 10.49 L16.48 10.46 L16.86 10.45 L17.25 10.47 L17.64 10.52 L18.03 10.60 L18.42 10.71 L18.80 10.84 L19.17 11.00 L19.54 11.19 L19.89 11.40 L20.23 11.65 L20.56 11.91 L20.87 12.20 L21.16 12.52 L21.43 12.85 L21.68 13.21 L21.90 13.58 L22.10 13.98 L22.28 14.39 L22.42 14.81 L22.54 15.25 L22.63 15.70 L22.68 16.15 L22.71 16.61 L22.70 17.08 L22.66 17.55 L22.59 18.02 L22.48 18.48 L22.34 18.94 L22.17 19.39 L21.97 19.83 L21.73 20.26 L21.46 20.68 L21.17 21.08 L20.84 21.46 L20.49 21.82 L20.10 22.15 L19.70 22.46 L19.27 22.75 L18.82 23.00 L18.35 23.23 L17.86 23.42 L17.36 23.58 L16.84 23.71 L16.31 23.80 L15.78 23.85 L15.23 23.87 L14.69 23.85 L14.14 23.79 L13.60 23.69 L13.06 23.56 L12.53 23.38 L12.00 23.17 L11.49 22.92 L11.00 22.64 L10.52 22.32 L10.07 21.97 L9.63 21.58 L9.23 21.16 L8.85 20.71 L8.50 20.24 L8.18 19.74 L7.89 19.21 L7.64 18.66 L7.43 18.10 L7.26 17.51 L7.12 16.92 L7.03 16.31 L6.98 15.69 L6.97 15.07 L7.01 14.44 L7.08 13.82 L7.21 13.20 L7.37 12.58 L7.58 11.98 L7.83 11.39 L8.12 10.81 L8.46 10.25 L8.83 9.72 L9.24 9.20 L9.69 8.72 L10.17 8.26 L10.69 7.84 L11.24 7.45 L11.81 7.10 L12.41 6.78 L13.04 6.51 L13.68 6.28 L14.34 6.09 L15.02 5.95 L15.71 5.86 L16.41 5.81 L17.11 5.81 L17.81 5.86 L18.52 5.96 L19.21 6.11 L19.90 6.31 L20.58 6.55 L21.24 6.84 L21.88 7.18 L22.51 7.56 L23.10 7.99 L23.67 8.46 L24.21 8.97 L24.71 9.52 L25.18 10.10 L25.60 10.72 L25.99 11.37 L26.33 12.05 L26.63 12.75 L26.87 13.47 L27.07 14.21 L27.22 14.97 L27.31 15.74 L27.36 16.52 L27.34 17.30 L27.28 18.08 L27.16 18.86 L26.98 19.64 L26.76 20.40 L26.48 21.15 L26.14 21.88 L25.76 22.59 L25.32 23.27 L24.84 23.93 L24.31 24.55 L23.74 25.14 L23.13 25.69 L22.47 26.20 L21.78 26.66 L21.06 27.08 L20.31 27.45 L19.53 27.77 L18.73 28.03 L17.90 28.24 L17.06 28.39 L16.21 28.49 L15.36 28.52 L14.49 28.50 L13.63 28.42 L12.77 28.27 L11.92 28.07 L11.09 27.81 L10.27 27.49 L9.47 27.12 L8.69 26.69 L7.95 26.20 L7.23 25.66 L6.55 25.07 L5.92 24.44 L5.32 23.76" fill="none" stroke="#4b46b3" stroke-width="2.5"
      stroke-linecap="round" stroke-linejoin="round"/></svg>